<svg fill="none" height="190" viewBox="0 0 140 190" width="140" xmlns="http://www.w3.org/2000/svg" xmlns:xlink="http://www.w3.org/1999/xlink"><clipPath id="a"><path d="m0 0h140v190h-140z"/></clipPath><g clip-path="url(#a)"><path d="m38.7013 154.524c-5.28.24-10.26 2.36-15.37 3.72-3.73 1-7.57 1.6-11.42 1.79-1.4.07-2.79999.09-4.17999-.15-.68-.12-1.37-.31-1.91-.74-.94-.74-1.24-2.01-1.39-3.19-.64-4.89.23-9.83 1.1-14.68-1.08 3.4-2.15 6.8-3.23 10.19-.55 1.74-1.1 3.49-1.26 5.31-.160002 1.82.13 3.72 1.13 5.24 1.19 1.8 3.24 2.84 5.27 3.56 3.85999 1.36 8.01999 1.83 12.08999 1.36 2.51-.29 4.96-.92 7.4-1.56 3.71-.97 7.42-1.95 11.13-2.95.22-.06.45-.13.61-.3.2-.22.21-.55.2-.85-.04-2.24-.08-4.47-.12-6.71" fill="#c8e6ff"/><path d="m104.251 154.944c.41-6.2.7-12.88-2.63-18.12-1.27-2-2.9998-3.66-4.4998-5.5-2.39-2.94-4.16-6.32-5.66-9.8-8.23-19.09-8.28-40.6999-6.12-61.3699-3.84 11.8-8.53 23.3199-14.02 34.4399-.91 1.84-1.84 3.69-2.31 5.69-.32 1.36-.41 2.77-.5 4.17-.2 3.08-.4 6.16-.59 9.24-.16 2.52-.32 5.08.28 7.53.69 2.84 2.35 5.33 3.72 7.91 2.41 4.54 3.99 9.52 4.62 14.63.14 1.11.25 2.27.84 3.22.39.62.95 1.11 1.5 1.6 3.25 2.89 6.18 6.14 8.72 9.68.57.79 1.16 1.64 2.05 2.03 1.02.46 2.21.22 3.3-.05 3.68-.91 7.2898-2.11 10.7798-3.59" fill="#c8e6ff"/><path d="m72.3109 49.5041s.98-6.03-.89-9.14c.84.04 2.09-.21 2.09-.21s.31-.59.4-.08-.36 7.69-.36 7.97-1.24 1.46-1.24 1.46z" fill="#c8e6ff"/><path d="m57.0816 56.3441s-6.83-5.06-3.88-11.58c-.47-.69-1.28-2.82-1.28-2.82l-1.59.64s-1.4 5.25.42 7.82c1.82 2.56 5.49 7.11 5.49 7.11l.84-1.16z" fill="#c8e6ff"/><path d="m50.3313 109.924v-1.66c0-.06 0-.13.04-.18.05-.07.15-.08.23-.09 1.17-.07 2.31.39 3.45.65.86.2 1.77.28 2.63.05 1.11-.29 2.03-1.08 2.77-1.96s1.33-1.88 2.05-2.77c-1.01 3.56-1.26 7.31-2.37 10.84-.16.52-.37 1.07-.81 1.38-.32-.32-.65-.66-.74-1.11-.03-.17-.03-.35-.05-.53-.07-.5-.39-.96-.84-1.19-.05-.03-.11-.05-.14-.1-.07-.1-.02-.23.01-.34.09-.32 0-.66-.19-.94s-.45-.48-.73-.65c-.92-.57-2.02-.24-3.09-.4-.74-.11-1.49-.18-2.23-.22" fill="#c7cdd4"/><path d="m103.871 159.634c-5.4202 1.54-10.8802 2.97-16.3602 4.28-.47.11-.95.22-1.42.16-.78-.11-1.41-.68-1.98-1.24-2.89-2.85-5.42-6.06-7.52-9.52-.63-1.04-1.24-2.13-2.2-2.87-1.75-1.36-4.19-1.26-6.39-1.05-.47.05-.96.09-1.42-.02s-.9-.44-1.03-.9c4.16-1.47 8.99.12 13.07-1.54 1.18 2.86 2.93 5.44 4.69 7.98 1.36 1.97 2.77 3.98 4.75 5.34.3.21.62.4.97.48.41.1.85.04 1.26-.04 1.92-.37 3.7-1.22 5.47-2.06 2.73-1.29 5.4502-2.59 8.1802-3.88.27 1.62.35 3.27.24 4.91" fill="#c8e6ff"/><path d="m43.2114 189.324c-2.73-.27-3.1099-65.6 3.9701-67.15-3.02-.49-4.9701-1.53-4.8301-.47s-4.4099 15.6-3.6999 30.02-1.43 25.2-2.5 29.36-1.8601 6.84-.0601 7.21 7.12 1.02 7.12 1.02z" fill="#9bd2ff"/><path d="m16.6013 150.224c-1.11-1.79-1.04-4.06.18-5.77 3.74-5.25 7.81-13.09 9.94-23.98 2.56-13.06 7.5-17.96 11.64-21.5899 4.14-3.63 3.84-4.63-2.84-2.4s-16.67 12.0999-21.6 36.2199c-1.42 7.24-3.87 22.9-.62 23.35 2.91.4 7.87 1.55 3.29-5.83z" fill="#9bd2ff"/><path d="m50.0009 31.5442c-.64.33-1.42.3-2.11.08s-1.29-.64-1.88-1.06c.4 1.04.3 2.22-.08 3.26s-1.02 1.97-1.69 2.86c-.46.61-.94 1.21-1.31 1.88s-.62 1.42-.58 2.18c.04.81.42 1.59 1.02 2.12.42.37.92.61 1.43.84.13.06.26.12.4.14.19.03.38-.02.57-.07 1.66-.43 3.27-1.03 4.8-1.81.21-.11.43-.22.57-.41.21-.29.21-.68.18-1.03-.09-1.45-.27-2.9-.53-4.33-.08-.42-.16-.85-.08-1.27.07-.35.26-.66.45-.95.04-.06.08-.13.09-.2 0-.08-.04-.16-.08-.23-.35-.62-.7-1.24-1.05-1.85" fill="#0f8df4"/><path d="m53.4016 22.6942c-.31.65-1.13.92-1.85.85-1.11-.11-2.12-.94-2.45-2-.29-.93-.09-1.93-.19-2.9-.26-2.37-2.29-4.27-2.49-6.64-.12-1.39.42-2.77003 1.25-3.89003s1.94-1.99 3.08-2.79c2.31-1.62 4.8-2.97 7.42-4.03-2.29-.729995-4.79 0-6.94 1.08-3.62 1.81-6.77 4.62001-8.79 8.14003-.69 1.2-1.26 2.5-1.45 3.88-.26 1.88.19 3.78.63 5.62.68 2.82 1.37 5.66 2.62 8.28.48 1 1.06 1.99 1.91 2.71s2.04 1.11 3.11.79c.15-.04.3-.11.4-.23s.13-.28.15-.43c.09-.84-.19-1.67-.18-2.51s.52-1.8 1.36-1.83c.86-.03 1.42.91 1.65 1.74s.4 1.8 1.13 2.26c.46.29 1.03.3 1.57.25.13-.01.26-.03.36-.1.3-.19.24-.64.14-.99-.72-2.39-1.56-4.75-2.53-7.05" fill="#0f8df4"/><path d="m52.0707 95.4242c-2.82-3.89-6.03-7.49-9.58-10.72-1.05-.96-2.13-1.89-3.01-3-1.01-1.28-1.72-2.76-2.51-4.19-1.01-1.83-2.17-3.59-3.46-5.24 1.46 3.44 2.92 6.89 4.38 10.33 1.03 2.42 2.06 4.87 2.59 7.45.07.34.15.72.42.95.22.18.52.23.8.28 3.75.6 7.34 2.22 10.26 4.66" fill="#c8e6ff"/><path d="m69.3615 85.7942c-2.39-2.02-3.17-5.3001-4.27-8.2401-.36-.97-.78-1.9399-1.44-2.7299-.37-.44-.81-.8201-1.21-1.2401-.89-.92-1.59-2.0199-2.26-3.1099-2.35-3.83-4.48-7.84-5.81-12.13-1-3.24-1.75-6.94-4.56-8.84.65 3.21 1.67 6.32 2.7 9.43.61 1.86 1.23 3.71 1.84 5.57.38 1.16.77 2.3199 1.16 3.4799 3.49 10.3501 7.6 20.48 11.7 30.6.71-4.02 1.43-8.0399 2.14-12.0599" fill="#c8e6ff"/><path d="m23.8117 181.404c-.62-4.66-.3-9.44.92-13.98.21-.78.45-1.57.46-2.39-1.59.35-3.16.78-4.71 1.28-.35.11-.72.24-.97.5-.24.24-.36.57-.47.9-1.04 2.99-2.01 6.01-2.92 9.05-.11.35-.21.73-.12 1.09.11.4.44.7.77.96 1.94 1.54 4.2 2.67 6.59 3.31" fill="#9bd2ff"/><path d="m58.0913 102.084s-5.22-7.4498-12.13-9.8598-20.21-.14-29.12 17.8898c-8.91998 18.03-15.21998 47.52-15.21998 47.52s-2.62 18.04 34.92998 4.54" stroke="#262626" stroke-linecap="round" stroke-linejoin="round" stroke-width="1.2"/><path d="m26.4013 97.2742c-2.86-12.32 2.29-26.41 3.11-27.43.74-.93 1.15-2.08 1.59-3.18 2.48-6.22 6.6-11.89 12.19-15.58.4-.26.81-.52 1.12-.87.42-.47.65-1.08.97-1.63.8-1.37 2.22-2.36 3.78-2.63.27-.05.55-.08.79-.21.2-.11.36-.3.54-.45.37-.33.85-.56 1.13-.97s.22-1.12-.27-1.25c-6.39 2.77-12.78 5.54-19.18 8.31-1.9.83-3.88 1.7-5.24 3.26-1.03 1.18-1.64 2.68-2.18 4.15-3.03 8.34-4.51 17.29-3.87 26.15" fill="#c8e6ff"/><path d="m21.4614 71.5842s-3.42 23.7 0 31.5998c1.6-2.59 4.94-5.9098 4.94-5.9098s-6.27-19.53-.61-24.15" fill="#c8e6ff"/><path d="m45.8916 63.9941-4.79-1.72.61-2.03 5.62 1.48z" fill="#c8e6ff"/><path d="m41.1016 62.2742 1.54-14.97 2.63-1.21-2.3 14.47" fill="#c8e6ff"/><path d="m67.681 103.484s-17.44-18.4299-23.43-33.5599c.72-1.28.8-2.97.8-2.97s11.77 22.63 22.32 30.79c.31.78.35 1.35.38 1.92.03.5699-.07 3.8199-.07 3.8199z" fill="#c8e6ff"/><path d="m60.7016 126.924s-1.25-2.99.91-3.21c1.31-.13-.67 22.64 6.07 22.64-2.97.18-7.06.29-5.67 1.73-.82-1.95-1.88-14.45-1.31-21.16z" fill="#c8e6ff"/><path d="m54.7713 160.104c1.86-.65 3.71-1.3 5.57-1.94.72-.25 1.57-.65 1.66-1.41.08-.73-.58-1.29-1.13-1.78-2.34-2.08-3.58-5.17-4-8.27-.43-3.1-.12-6.25.17-9.36s.57-6.27.1-9.36c-.18-1.15-.46-2.3-1-3.34-.65-1.24-1.63-2.27-2.45-3.39 1.4 4.58.9 9.51.28 14.26-.24 1.84-.5 3.68-.82 5.51-.43 2.41-.97 4.84-.82 7.28.24 3.91 2.23 7.62 1.99 11.53" fill="#9bd2ff"/><path d="m39.9116 111.294c-.63-.55-1.81-1.33-2.25-2.04s-.66-1.62-.38-2.41c.28-.78.98-1.33 1.65-1.82-.75-.04-1.49-.28-2.11-.7.16.91-.32 1.81-.89 2.53s-1.27 1.37-1.66 2.2-.4 1.95.3 2.55c-.81.06-1.08 1.11-1.1 1.92-.1 4.43.84 8.88 2.72 12.89-1.13.87-1.12 2.55-.98 3.96.15 1.42.26 3.05-.76 4.05-1.05 1.03-2.81.85-4.03 1.67-1.47 1-1.68 3.13-1.23 4.85s1.4 3.29 1.74 5.04c.07.34.11.71-.02 1.03-.27.69-1.12.9-1.85 1.02-2.29.37-4.59.73-6.88 1.1.96 1.56 2.71 2.51 4.51 2.85 1.8.33 3.66.11 5.46-.23 2.22-.43 4.4-1.04 6.51-1.84-1.34-9.39.16-19.17 4.27-27.72.09-.18.18-.38.15-.59-.03-.18-.16-.33-.28-.48-2.31-2.67-2.98-6.07-2.72-9.59" fill="#9bd2ff"/><path d="m117.722 95.4241c-2.01.17-4.16-.5-5.45-2.05s-1.5-4.02-.21-5.57c.77-.93 1.96-1.44 2.72-2.37-.84-.27-1.74-.14-2.61-.01s-1.77.24-2.6-.04-1.54-1.1-1.4-1.97c.02-.15.07-.3.05-.44-.07-.41-.58-.54-.99-.64-1.7-.42-2.9-1.91-3.83-3.39-2.45-3.9-3.9304-8.4-4.2504-13-.97 3.17-.11 6.58-.08 9.9.02 2.01-.27 4.01-.35 6.02-.01.35-.02.71.1 1.04.11.3.31.55.51.79 1.5204 1.74 3.6904 2.88 5.9804 3.17-.87.75-1.73 1.5-2.6 2.25-.46.4-.95.86-.98 1.47-.02.33.11.64.27.93.97 1.7 3.08 2.29 4.98 2.74-.63 1.42.27 3.31 1.77 3.71.41.11.88.14 1.17.45.16.17.23.39.31.6 1.05 2.8299 3.23 5.2199 5.95 6.5299-.56-1.63-.43-3.43.05-5.08.48-1.6499 1.3-3.1799 2.14-4.6799" fill="#9bd2ff"/><path d="m121.911 107.604c.82.32 1.85.01 2.36-.71.06-.08.12-.17.21-.19.08-.02.17.02.24.06.33.2.61.48.97.62.62.22 1.33-.09 1.77-.58s.65-1.14.84-1.77c.64.5 1.5.7 2.3.54s1.51-.69 1.89-1.41c.04-.07.07-.14.06-.22s-.08-.14-.14-.19c-.91-.81-1.83-1.62-2.74-2.43-.23-.2-.48-.47-.4-.76.69.42 1.64-.02 2.36.35.3.15.51.42.72.68 2.04 2.56 4.19 5.09 6.44 7.47-.71-.2-1.29-.72-1.85-1.2-1.07-.9-2.28-1.84-3.42-2.65-.06.5-.12 1.03-.44 1.43-.36.44-.97.61-1.54.6-.46-.01-.91-.13-1.32-.34-.12-.06-.24-.13-.38-.14-.37 0-.52.46-.65.8-.17.45-.48.86-.88 1.13-.21.15-.46.26-.71.26-.29 0-.55-.17-.8-.32-.48-.3-.96-.61-1.44-.91-.08-.05-.16-.1-.25-.1-.21-.01-.34.21-.45.38-.37.61-1 1.11-1.71 1.11s-1.41-.65-1.29-1.35" fill="#c8e6ff"/><path d="m120.761 107.414c-1.58-.41-3.08-1.1-4.42-2.02-.14-.1-.28-.2-.36-.34-.09-.16-.1-.34-.1-.52-.04-2.71 1.04-5.2999 2.3-7.6899.36-.68.73-1.34 1.15-1.98.82-1.24 1.84-2.35 3-3.28.45-.36.92-.7 1.47-.86 1.31-.4 2.7.26 3.82 1.06-1.68.98-3.28 2.11-4.77 3.36-.32.27-.64.55-.89.88-.13.17-.25.36-.39.53-.39.47-.92.78-1.36 1.2-1.23 1.2-1.44 3.3099-.46 4.7199.12.17.25.34.31.54.04.14.04.29.04.43 0 1.36.24 2.71.7 3.99" fill="#c8e6ff"/><path d="m131.461 98.4742c-.54-.67-1.2-1.24-1.94-1.68-.6-.36-1.27-.65-1.74-1.18-.13-.14-.24-.3-.26-.49-.04-.29.14-.57.38-.74s.53-.24.82-.3c1.72-.4 3.43-.8 5.15-1.21 1.24-.29 2.49-.58 3.66-1.08-2.28 1.56-4.98 2.37-7.58 3.31-.06.02-.12.05-.14.11-.01.05 0 .1.03.14.27.53.74.93 1.13 1.38s.73 1.02.64 1.61" fill="#c8e6ff"/><path d="m65.1609 54.6543c-.61.19-1.33-.03-1.73-.53-.12-.15-.23-.34-.41-.42-.08-.04-.18-.05-.27-.07-.53-.1-1.06-.33-1.38-.76-.17-.22-.28-.49-.37-.76-.08-.24-.15-.49-.13-.75-.21.05-.38.18-.52.34-.51.57-.6 1.41-.49 2.16.05.36.14.72.27 1.07.16.44.41.87.81 1.11.24.14.51.2.78.24.43.06.86.09 1.3.07.47-.02.97-.1 1.33-.4.27-.23.44-.56.6-.88" fill="#9bd2ff"/><path d="m55.011 45.5042c-.47-1.79.29-3.78 1.7-4.98s3.37-1.63 5.21-1.37c-.93-.4-1.88-.8-2.65-1.46s-1.35-1.61-1.32-2.62c.04-1.09.78-2.06.88-3.15.23-2.46-2.77-4.27-2.72-6.74.03-1.45 1.11-2.66 1.49-4.06.39-1.48-.03-3.04-.02-4.58 0-1.06.22-2.13.64-3.1.13-.3.28-.6.52-.82.33-.29.77-.38 1.2-.47 2.29-.5 4.53-1.23 6.67-2.18999-3.61-.01-7.22.19999-10.81.63999-.2.02-.41.06-.55.2-.13.13-.17.34-.19.52-.27 2.56.93 5.05.94 7.62 0 .34-.02.68-.19.98-.15.25-.38.43-.59.64-1.19 1.18-1.23 3.11-.8 4.73s1.26 3.12 1.58 4.77c.02.11.04.24-.03.33-.07.1-.19.13-.31.15-.34.07-.69.13-1.03.2-.12-.37-.32-.74-.65-.96s-.79-.28-1.11-.04c-.43.32-.4 1.01-.1 1.46s.77.75 1.17 1.1.77.84.72 1.38c-.07.72-.91 1.16-1.63 1.08s-1.34-.53-1.92-.96c-.37 1.97.23 3.98.62 5.95.23 1.15.39 2.33.86 3.41s1.31 2.06 2.44 2.38" fill="#c8e6ff"/><g stroke-linecap="round" stroke-linejoin="round"><path d="m70.4316 18.6042s4.64 4.77 5.62 6.08-4.61 3.22-4.61 3.22" stroke="#262626" stroke-width="1.2"/><path d="m74.4114 20.6741c-.41-7.58-3.7899-12.24002-3.7899-12.24002s-3.0001 1.80002-14.6401 2.75002" stroke="#262626" stroke-width="1.2"/><path d="m75.7509 27.5742s1.04 4.91 1.61 8.23c.57 3.33-5.78 6.95-15.73 2.02" stroke="#262626" stroke-width="1.2"/><path d="m55.161 12.4941s.11 3.63.68 6.38-2.7 1.34-1.34 5.51 2.05 6.33 2.05 6.33h-1.36" stroke="#262626" stroke-width="1.2"/><path d="m53.2517 27.9043s-.93-1.58-2.4-.93.28 8.7 3.49 7.88" stroke="#262626" stroke-width="1.2"/><path d="m54.3408 1.66406c-12.65 3.12-16.4 18.27004-8.51 27.81004" stroke="#262626" stroke-width=".93"/><path d="m70.6215 8.4341s-.7001-9.259997-14.6401-7.09" stroke="#262626" stroke-width="1.2"/><path d="m51.0713 35.6143 1.26 8.02s5.16 6.05 9.9 5.97 9.49-9.36 9.49-9.36" stroke="#262626" stroke-width="1.2"/><path d="m52.061 41.874s-18.98 7.48-23.84 11.54-9.96 41.75-6.74 49.11" stroke="#262626" stroke-width="1.2"/><path d="m77.0811 37.9841s13.29 3.17 19.14 5.22c5.8499 2.05 20.3099 32.77 20.3099 32.77" stroke="#262626" stroke-width="1.2"/><path d="m121.201 107.344c-7.02-1.11-5.43-7.23-2.97-11.9799 2.46-4.75 5.94-5.55 6.89-5.39s2.55.66 2.99 1.82" stroke="#262626" stroke-width="1.2"/><path d="m104.261 86.0741s-3.06-.34-4.9798-3.62" stroke="#262626" stroke-width="1.2"/><path d="m99.2308 78.8042c.05 5.24.16 10.48.39 14.53.7002 12.5598 4.2102 18.8598 5.9302 24.4198s-.82 37.3-.82 37.3-3.44 3.52-15.4202 5.77c-1.4.29-8.52-7.92-10.76-13.92" stroke="#262626" stroke-width="1.2"/><path d="m99.291 56.7642s-.15 9.95-.08 20.39" stroke="#262626" stroke-width=".55"/><path d="m50.0413 42.6942s-1.42 6.71 3.45 19.71c4.87 13.01 14.19 36.12 14.19 36.12s5.36-40.9 5.97-49.33.2-9.12.2-9.12" stroke="#262626" stroke-width="1.2"/><path d="m50.3213 49.8542 6.23 8.0501 4.3-8.0501" stroke="#262626" stroke-width="1.2"/><path d="m63.9912 49.604s6.63 5.56 6.63 5.44 3.21-8.67 3.21-8.67" stroke="#262626" stroke-width="1.2"/><path d="m62.8313 56.2341c1.6624 0 3.01-1.3476 3.01-3.01s-1.3476-3.01-3.01-3.01-3.01 1.3476-3.01 3.01 1.3476 3.01 3.01 3.01z" stroke="#262626" stroke-width="1.2"/><path d="m63.2412 60.0142.86 25.6" stroke="#262626" stroke-width=".93"/><path d="m63.1416 56.2341.07 2.16" stroke="#262626" stroke-width="1.2"/><path d="m82.2013 55.0442 2.49-1.82-4.58-14.45" stroke="#262626" stroke-width="1.2"/><path d="m45.5217 44.5742s-2.1 12.51-2.55 15.99l2.54.7" stroke="#262626" stroke-width="1.2"/><path d="m67.6816 98.5241s15.99-34.4 17.91-39.76c-2.86-.78-6.99-2.9-9.94-5.77" stroke="#262626" stroke-width="1.2"/><path d="m45.8916 68.5242c3.5 6.28 12.91 21.37 19.85 28.25" stroke="#262626" stroke-width=".55"/><path d="m50.7416 54.7542s-3.39 8.47-6.14 11.29c.12.28.34.73.65 1.31" stroke="#262626" stroke-width="1.2"/><path d="m67.6816 98.5242s1.06 17.9998.9 25.1998" stroke="#262626" stroke-width="1.2"/><path d="m80.4814 78.4442 14.8-4.09.01 2.04" stroke="#262626" stroke-width="1.2"/><path d="m50.3408 110.744v-8.54s6.15 1.3 11.89-1.51c0 0-1.58 5.08-3.76 15.55" stroke="#262626" stroke-width="1.2"/><path d="m43.0107 113.244s.57.86 3.52.94c2.94.08 10.06-1.31 10.06-1.31s1.14-2.49-8.96-1.76" stroke="#262626" stroke-width="1.2"/><path d="m50.1312 108.014s-3.52.13-5.52.45-4.54-.08-5.07 3.35c-.53 3.44 2.05 8.05 5.07 9.28 3.03 1.23 7.61-.12 10.1-1.06 0 0-.37-1.3-2.02-1.15" stroke="#262626" stroke-width="1.2"/><path d="m47.4408 119.214c5.34.59 10.09-2.04 11.07-2.41-.12-.81-1.02-1.76-6.63-.45 0 0-3.07.65-6.79.37" stroke="#262626" stroke-width="1.2"/><path d="m55.4712 115.744 2.13-.66s.76-1.54-4.15-1.65" stroke="#262626" stroke-width="1.2"/><path d="m60.421 107.554s21.82 41.56 15.4 39.68-19.12-.47-12.19 1.47c8.61 2.41 5.83 8.45-7.59 11.37" stroke="#262626" stroke-width="1.2"/><path d="m61.6116 147.634c-1.05-2.11-.93-10.34-.88-22.32" stroke="#262626" stroke-width="1.2"/><path d="m76.2216 147.294s-6.96.13-10.08.91" stroke="#262626" stroke-width="1.2"/><path d="m54.2813 177.154c-.14 5.29-.43 8.33-.43 8.33-.28 3.53-9.28 4.06-17.31 2.24-.74-.17-1.19-.93-.95-1.65 1.01-3.06 3.28-11.63 3.35-26.77.1-19.47 1.97-33.41 4.51-38.83" stroke="#262626" stroke-width="1.2"/><path d="m54.7117 122.084c1.43 11.21-2 15.79-.86 33.62.48 7.53.56 14.77.49 19.74" stroke="#262626" stroke-width=".93"/><path d="m14.6211 127.374c5.08-17.91 11.59-29.47 24.32-32.15 2.66-.16 2.23 1.31-1.26 3.65s-9.76 8.76-10.91 17.36-5.45 22.5-12 28.94" stroke="#262626" stroke-width=".55"/><path d="m11.561 155.534s-2.30003-8.52 2.65-26.67" stroke="#262626" stroke-width="1.2"/><path d="m46.2908 108.214s-2.85-1.5-2.2-3.46c-1.27.37-2.42-.29-2.26-2.22-.57 1.47-2.25 3.1-4.66 1.82.94 1.78-3.03 2.68-2.82 6.49" stroke="#262626" stroke-width="1.2"/><path d="m39.6311 111.324s-2.06-.82-2.3-2.86" stroke="#262626" stroke-width="1.2"/><path d="m35.1212 124.574s-4.8999-9.14-1.1499-19.1c-.94 2.62-3.1501 5.24-3.1901 17.06" stroke="#262626" stroke-width="1.2"/><path d="m38.9414 100.434s3.51-1.91 6.89 1.91c-.35-1.12 1.34-2.75 2.45-1.65" stroke="#262626" stroke-width="1.2"/><path d="m9.88162 154.394s-2.08999 5.19 24.00998-2.82" stroke="#262626" stroke-width="1.2"/><path d="m23.2814 148.724s-1.69 1.36 5.02-.33-6.11-7.74 3.38-11.62-1.78-10.5 8.98-12.2" stroke="#0f8df4" stroke-width="1.2"/><path d="m46.1907 44.2943c-5.12-1.77-2.32-5.84-.88-8.16s.98-5.27.98-5.27 2.18 2.08 4.5.46" stroke="#262626" stroke-width="1.2"/><path d="m62.8311 54.3341v-1.34" stroke="#262626" stroke-width="1.2"/><path d="m104.142 155.534v29.62" stroke="#262626" stroke-width="1.2"/><path d="m21.051 166.824s-3.34 6.88-4.48 9c-1.15 2.13.89 5.08 17.51 9.46" stroke="#262626" stroke-width="1.2"/><path d="m75.6914 161.184v23.97" stroke="#262626" stroke-width="1.2"/><path d="m116.961 105.124c-1.72-1.77-5.21-5.08-5.84-6.8598-.63-1.78-4.79-.33-2.89-5.97" stroke="#262626" stroke-width="1.2"/><path d="m106.452 93.1841c-6.18-1.22-5.62-3.26 2.28-8.23" stroke="#262626" stroke-width="1.2"/><path d="m110.551 86.6741s2.37-3.17 7.81-2.55" stroke="#262626" stroke-width=".93"/><path d="m124.991 88.324s-1.01-2.7-1.56-3.64-.15-4.7-4.85-4.53" stroke="#262626" stroke-width="1.2"/><path d="m119.481 80.1641s.17-3.53-5.89-2.54" stroke="#262626" stroke-width="1.2"/><path d="m40.6616 91.0941c-3.39-7.12-3.34-14.38-9.52-22.36" stroke="#262626" stroke-width="1.2"/><path d="m127.921 92.1842s8.24-2.4 10.27-2.78.75 3.33-9.14 5.71" stroke="#262626" stroke-width="1.2"/><path d="m130.081 96.124s1.3 1.21 1.85 2.41" stroke="#262626" stroke-width="1.2"/><path d="m131.951 98.5542c9.04 8.0898 7.73 11.4398 6.45 10.4298-1.29-1.01-7.71-7.16-7.71-7.16s.19-.73.93-1.45" stroke="#262626" stroke-width="1.2"/><path d="m126.611 92.8141c-1.47-.17-3.79.85-5.32 3.83-.92 1.79-2.9 2.58-2.29 5.4099" stroke="#262626" stroke-width="1.2"/><path d="m122.481 105.304c-.68-2.88-2.65-2.85-2.58-2.07s.51 3.01.84 3.48 1.27 1.73 1.27 1.73c.37.54 1.15.8 1.8.44.89-.49 1.17-1.74.86-2.14" stroke="#262626" stroke-width="1.2"/><path d="m127.522 106.224-1.88-2.29c-1.99-3.22-3.92-2.5-3.59-1.7s1.26 2.77 1.76 3.42 1.99 2.57 1.99 2.57c.47.65 1.84.85 2.36.43s1.65-1.03.83-3.21" stroke="#262626" stroke-width="1.2"/><path d="m131.301 103.224c-3.81-4.1099-6.21-3.2799-5.47-2.41.74.87 3.19 4.85 3.93 5.65.8.88 2.11.83 3 .18s.33-2.02.14-2.43" stroke="#262626" stroke-width="1.2"/><path d="m122.941 98.4242s2.4 1.07 5.5-.1" stroke="#262626" stroke-width=".55"/><path d="m136.131 104.034s.05-.21.26-.41" stroke="#262626" stroke-width="1.2"/></g></g></svg>