<svg fill="none" height="160" viewBox="0 0 238 160" width="238" xmlns="http://www.w3.org/2000/svg"><path d="m83.04 86.9192c.78-.01 1.5-.38 2.18-.75.74-.4 1.48-.82 2.06-1.43.57-.61.96-1.45.84-2.29.78 1.3 1.24 2.77 1.69 4.21.2.63.4 1.26.59 1.88.07.21.13.43.13.65 0 .42-.26.8-.58 1.06s-.72.42-1.1.58c-.76.31-1.52.61-2.28.92-.13.05-.29.11-.41.04-.08-.04-.12-.12-.17-.2-.4-.69-.8-1.39-1.2-2.08-.14-.25-.29-.5-.47-.72-.22-.27-.5-.48-.72-.75-.24-.3-.4-.66-.55-1.01" fill="#c7cdd4"/><path d="m109.83 117.839-2.48 40.34h2.48m-86.05-51.24-23.78 16.3h73.46l2.21-7.68-3.13 5.77h-67.92z" fill="#9bd2ff"/><path d="m196.281 52.5891c-4.02-21.26-10.73-39.03-17.13-47.04003 5.37 9.31003 10.88 25.21003 14.64 43.69003 6.19 30.41 5.31 56.2599-1.96 57.7399-1.14.23-2.37-.15-3.66-1.07l-1.49-1.29c-6.43-6.4399-13.91-25.0399-18.78-47.8999l-.26-1.26-.18-.85c-1.05-5.14-1.89-10.15-2.53-14.94.54 5.79 1.4 11.97 2.61 18.35.05.28.11.56.16.84l.24 1.24c4.49 22.52 11.96 40.8299 18.71 47.1399l1.57 1.26c1.36.91 2.68 1.28 3.93 1.04 7.94-1.5 9.78-26.9999 4.12-56.9499z" fill="#0f8df4"/><path d="m177.521 91.8591-84.7405.13-10.0099 1.35c-.51.39-.9901.82-1.4201 1.3-.25.28-.4899.58-.5599.95-.09.44.08.9.25 1.31.73 1.71 1.69 3.3099 2.85 4.7599 8.29-1.23 13.94-4.2199 13.94-4.2199l6.3304 2.17h40.59c7.14 0 25.11 10.3599 38.59 10.3599h8.47c-7.56-1.75-12.56-13.4199-14.28-18.1199z" fill="#9bd2ff"/><path d="m85.0301 91.6092c-1.62.43-3.37.36-4.94-.21 1.26-.68 2.43-1.53 3.47-2.51-.61.01-1.21-.13-1.8-.31-.72-.22-1.46-.52-1.95-1.1-.44-.52-.61-1.22-.73-1.89-.11-.63-.17-1.28-.19-1.92-.55.02-1.11.07-1.66.15-.08.01-.17.03-.23.08-.0559.062-.094.138-.11.22-.38 1.59-.04 3.25.36 4.83.15.59.31 1.17.47 1.75.2.73.41 1.45.7 2.15.36.86.83 1.67 1.41 2.4.03.04.07.08.12.1s.11 0 .17-.02c1.85-.69 3.11-2.38 4.72-3.51" fill="#0f8df4"/><path d="m73.8207 115.759c-5.01-4.13-8.67-9.87-10.32-16.1499-1.12.4399-2.53-.06-3.11-1.12-.23-.42-.35-.93-.73-1.24-.29-.24-.68-.31-1.05-.35-3.07-.27-6.34 1.65-9.1.29-1.96-.96-3.23-3.43-5.41-3.45-.77 0-1.5.32-2.27.4-1.72.19-3.23-.8-4.49-2.07h-9.78c-4.4 0-2.99 4.65 7.41 4.65s13.63 4.7799 19.85 4.7799-7.1 14.77 11.94 14.77h7.36c.11 0 .22-.02.33-.03-.22-.16-.43-.33-.64-.5z" fill="#9bd2ff"/><path d="m104.8 78.5591c1.53 2.45 2.3 5.69 13.67 5.63h19.64c4.34 0 9.3-1.28 11.44-5.63-.83 3.98-2.58 17.48-14.69 22.6899-10.26 0-40.6896-.13-43.7096-.16 7.27-5.5099 12.0296-11.7499 13.6396-22.5299z" fill="#c8e6ff"/><path d="m91.5899 63.9292-39.72 8.15c-1.06 7.35 3.53 18.72 5.29 21.56 1.27 2.05 2.66 2.65 3.33 2.82-1.13-3.4-2.37-6.77-3.74-10.08-.43-1.04-.88-2.11-.92-3.23-.07-1.79.89-3.43 1.31-5.17.16-.66.26-1.37.71-1.88.5-.55 1.28-.71 2.02-.84 7.63-1.34 15.25-2.67 22.88-4.01.52-.09 1.08-.18 1.55.06.36.18.6.51.82.85 1.93 2.96 2.55 6.54 3.59 9.92.5922 1.9288 1.3276 3.8107 2.2 5.63.17.36.35.74.3 1.14-.13.89-1.26 1.14-2.13 1.34-1.87.44-3.52 1.58-4.85 2.97l16.4701-2.38.82-1.63c-9.8801-7.43-9.9201-25.22-9.9201-25.22z" fill="#c8e6ff"/><path d="m87.68 106.559c-3.1991 1.565-6.8024 2.106-10.32 1.55 1.98-1.29 3.78-2.88 5.3-4.69-4.57-1-9.42-2.16-12.67-5.5198-1.24-1.28-2.17-2.83-3.06-4.38-.72-1.27-1.43-2.59-1.64-4.03-.04-.24-.05-.5.07-.71.11-.19.33-.31.53-.41 2.5134-1.2403 5.1561-2.1995 7.88-2.86-2.16-.51-3.95-2.35-4.4-4.52-2.13.49-4.31.88-6.5.81s-4.4-.62-6.2-1.86c-.65 1.18-1.32 2.44-1.26 3.79.03.64.22 1.27.42 1.88 1.32 4.17 2.63 8.34 3.95 12.52.18.56.36 1.12.71 1.59.35.4698.92.8098 1.5.7298.62-.08 1.27-.5998 1.78-.23.18.13.28.35.37.56 1.55 3.74 2.88 7.73 5.71 10.61.37.37.76.73 1.09 1.14.57.71.93 1.57 1.44 2.33s1.24 1.45 2.15 1.55c1.01.11 1.93-.53 2.74-1.13 3.14-2.34 6.29-4.67 9.43-7.01.62-.46 1.3-1.27.83-1.88" fill="#c7cdd4"/><path d="m56.1003 121.089c-7.62.24-34.01-9.48-19.82-14.57-6.48-.36-10.51-.36-10.51-.36l-20.19999 15.16 50.52999-.24z" fill="#c8e6ff"/><path d="m32.79 84.6991c2.15.25 4.36-.06 6.35-.9 1.44.74 3.16.55 4.76.31 2.47-.38 5.05-.91 6.98-2.51.85 2.74 1.71 5.49 2.89 8.11 1.19 2.62 2.72 5.11 4.77 7.11-1.51.88-3.29 1.16-5.04 1.31-.75.07-1.51.11-2.24-.05-.77-.17-1.48-.56-2.14-.99-1.21-.78-2.32-1.72-3.35-2.73-.14-.14-.28-.28-.45-.35-.25-.1-.53-.04-.8.02-1.45.33-2.94.77-4.39.44-1.72-.39-3.02-1.79-4.06-3.22-1.38-1.91-2.5-4.05-2.95-6.36m112.29 2.67c19.47 3.11 31.55 11.04 36.03 13.4799-5.21-8.1199-11.47-30.0099-11.55-30.3199-.03-.12-8.57-.86-20.38-1.41-.9 8.76-2.76 14.83-4.09 18.25zm-39.27-19c-5.3.38-10.15.95-14.16 1.78 0 0-.27 3.43 3.04 9.9 2.48 4.84 5.1 7.37 6.25 8.33 2.46-5.33 4.04-14.22 4.86-20.01z" fill="#9bd2ff"/><path d="m169.02 10.0791c.19 7.48 16.51 105.4799 25.88 62.87.56 7.43 2.43 30.3599-4.27 32.6899-6.7 2.32-15.83-24.1599-20.21-47.2999-4.38-23.15-3.44-46.13-1.4-48.25zm-57.95 142.0399c0-5.15 58.54-46.17 109.33-23.71-7.18-4.68-20.76-11.63-20.76-11.63h-88.57v35.35z" fill="#c8e6ff"/><path d="m169.641 44.6392s6.14 1.44 7.92 10.01c1.78 8.56-1.69 12.86-3.96 14.21" fill="#0f8df4"/><g stroke-linecap="round" stroke-linejoin="round"><path d="m186.99 107.239c-6.75-6.32-14.22-24.6199-18.71-47.1399" stroke="#262626" stroke-width=".93"/><path d="m168.041 58.8592c-.05-.28-.11-.56-.16-.84-5.66-29.95-3.81-55.45001 4.12-56.95001 7.94-1.499997 18.96 21.57001 24.61 51.52001 5.66 29.95 3.81 55.4498-4.12 56.9498-1.24.24-2.57-.13-3.93-1.04" stroke="#262626" stroke-width="1.2"/><path d="m190.85 44.6892c.64 2.8 1.25 5.69 1.81 8.65 5.15 27.26 4.45 50.2798-1.56 51.4198s-15.06-20.0398-20.21-47.2998c-3.04-16.11-4.04-30.74-3.11-40.25" stroke="#262626" stroke-width="1.2"/><path d="m168.011 15.2093c.75-5.42002 2.24-8.76002 4.44-9.18002 5.22-.99 12.73 14.86002 17.99 36.91002" stroke="#262626" stroke-width=".55"/><path d="m81.2699 71.3591-16.85 2.9" stroke="#262626" stroke-width=".93"/><path d="m62.8002 74.5991-4.48.7701c-.54.09-.99.47-1.18.99l-2.22 6.1699c-.44 1.22.74 2.4 1.96 1.96l27.03-9.8399c.3738-.1339.6803-.4087.8541-.7656s.201-.7677.0759-1.1445l-.18-.5599c-.24-.72-.97-1.16-1.71-1.03" stroke="#262626" stroke-width="1.2"/><path d="m87.2804 90.9193 2.26-.82c.3738-.1339.6803-.4087.8541-.7656s.201-.7677.0759-1.1444l-5.63-15.4601m-29.9 10.9 5.68 15.5601c.33.65 1.1 1.0397 1.89.75l.54-.2m19.84 2.9697c.82-.56 1.93-.45 2.63.26l1.87 1.92c.9.92.74 2.44-.34 3.15l-11.38 7.52c-.86.57-2.01.41-2.68-.37l-1.6-1.84c-.1902-.218-.332-.474-.4161-.751s-.1085-.569-.0716-.856c.0368-.288.1341-.564.2854-.811.1513-.246.3532-.459.5923-.622" stroke="#262626" stroke-width="1.2"/><path d="m73.0703 109.429 8.5-5.82" stroke="#262626" stroke-width=".93"/><path d="m63.5508 89.1691c1.38-1.54 4.39-3.97 9.91-4.59" stroke="#262626" stroke-width=".55"/><path d="m70.9503 112.549s-8.05-4.62-8.38-22.0799m22.35 12.0799s-7.55-8.5799-8.31-18.4599l4.35-1.19s-2.24 1.81 3.1 5.4l1.38 3.32-5.07 3.69m53.2597-56.36c22.31-10.34 32.3-28.15 32.3-28.15" stroke="#262626" stroke-width="1.2"/><path d="m97.0508 49.7291c8.8802-2.17 17.7302-4.44 25.4602-6.65 3.48-.99 6.74-2.19 9.78-3.52" stroke="#262626" stroke-width=".93"/><path d="m57.28 97.2491c-2.93.47-5.04.78-5.93.9-.33.05-.65 0-.95-.15-1.95-.95-9.22-5.29-10.58-17.67-1.22-11.05 2.74-16.34 4.61-18.18.5-.49 1.12-.83 1.81-.97 4.65-.97 26.91-5.64 49.34-11.08m2.25 41.07c-2.86.39-5.7.79-8.48 1.18m90.05 7.28c-5.11-3.28-16.06-9.26-30.73-11.58" stroke="#262626" stroke-width="1.2"/><path d="m91.9707 73.9292c1.79 7.37 4.89 11.76 7.22 14.17" stroke="#262626" stroke-width=".55"/><path d="m95.5699 50.0891s-6.59 5.87-4.35 20.09c.1.65.21 1.27.33 1.88m-36.67 18.44c2.15 4.22 4.4 6.22 4.4 6.22" stroke="#262626" stroke-width="1.2"/><path d="m52.6701 62.9893c-1.05 3.18-2.15 8.42-1.36 15.3.51 4.47 1.66 8.08 2.93 10.88" stroke="#262626" stroke-width=".55"/><path d="m54.1501 59.4993s-.47.78-1.04 2.25m-19.24 25.09c1.64 4.13 4.26 6.19 5.71 7.07.62.37 1.36.5 2.07.38l1.28-.21" stroke="#262626" stroke-width="1.2"/><path d="m34.4908 69.9092c-1.29 2.09-2.57 5.71-1.93 11.47.16 1.45.43 2.75.78 3.92" stroke="#262626" stroke-width=".93"/><path d="m41.31 66.8891-3.78.49c-.71.09-1.36.42-1.85.95m1.58 23.75h-24.76m213.36 0h-25.59m-36.45 0h-16.74m2.38-17.42c.11-.7.21-1.36.3-1.98 1.19-8.1 2.83-21.74 2.83-21.74l-44.72-.33" stroke="#262626" stroke-width="1.2"/><path d="m138.78 98.4591c6.8-5.54 9.24-15.29 10.44-22.34" stroke="#262626" stroke-width=".55"/><path d="m137.321 99.5291c-1 .6599-2.08 1.2399-3.24 1.7199l-44.7205-.16c11.9905-4.8999 14.4905-20.4599 15.6805-28.5699s2.83-21.74 2.83-21.74m-96.8505 65.7399 13.8-10.36h38.69" stroke="#262626" stroke-width="1.2"/><path d="m27.5701 121.329h-22.94998l5.37998-4.05" stroke="#262626" stroke-width=".55"/><path d="m74.1301 117.839-1.59 3.49h-43.67" stroke="#262626" stroke-width="1.2"/><path d="m109.83 140.689v18.2" stroke="#262626" stroke-width=".55"/><path d="m236.5 138.129-38.11-21.36h-88.56v22.33" stroke="#262626" stroke-width="1.2"/><path d="m116.28 121.329h35.28" stroke="#262626" stroke-width=".93"/><path d="m116.71 127.119h47.21m-46.87 6.26h56.11m-147.12-24.25h5.66" stroke="#262626" stroke-width="1.2"/><path d="m22.4805 111.459h22.64m77.6895-56.1498-11.69-.09" stroke="#262626" stroke-width=".93"/><path d="m138.26 60.5391-27.51-.2m31.85 5.35-32.23-.23" stroke="#262626" stroke-width="1.2"/><path d="m232.181 92.0791h-.37m-1.71 0h-2" stroke="#262626" stroke-width="1.2"/><path d="m2.82031 92.0791h.94m2.74 0h3.53999" stroke="#262626" stroke-width="1.2"/><path d="m83.5505 88.6592-4.78 3.48" stroke="#262626" stroke-width="1.2"/><path d="m58.1602 66.3392c2.81.96 2.55-6.87 3.85-2.47 1.3 4.41 2.98 3.24 4.36.18 1.38-3.07 3.39 4.27 5.88-1.14 2.08-4.53 7.81 3.26 13.8-3.71" stroke="#0f8df4" stroke-width="1.2"/></g></svg>